<?xml version="1.0" standalone="no"?>
<!DOCTYPE svg PUBLIC "-//W3C//DTD SVG 20010904//EN"
 "http://www.w3.org/TR/2001/REC-SVG-20010904/DTD/svg10.dtd">
<svg version="1.0" xmlns="http://www.w3.org/2000/svg"
 width="300.000000pt" height="207.000000pt" viewBox="0 0 300.000000 207.000000"
 preserveAspectRatio="xMidYMid meet">
<metadata>
Created by potrace 1.10, written by Peter Selinger 2001-2011
</metadata>
<g transform="translate(0.000000,207.000000) scale(0.100000,-0.100000)"
fill="#000000" stroke="none">
<path d="M1360 2060 c-577 -39 -1083 -315 -1272 -695 -60 -119 -73 -179 -73
-335 0 -156 14 -217 73 -335 153 -306 502 -541 963 -649 88 -21 298 -46 385
-46 31 0 32 33 4 75 -51 75 -103 237 -125 389 -5 36 -3 51 7 57 16 11 129 11
144 1 8 -5 11 -63 10 -187 0 -99 2 -209 5 -245 3 -36 6 45 7 180 1 135 5 255
8 267 6 23 6 23 -113 23 l-120 0 13 -72 c6 -40 11 -73 11 -74 -10 -5 -140 -24
-143 -21 -3 2 -14 37 -25 78 -11 41 -25 79 -31 84 -13 13 -3 -41 23 -115 10
-30 19 -56 19 -57 0 -2 -11 -3 -24 -3 -13 0 -51 -8 -84 -19 l-60 -18 -51 101
-52 101 48 12 48 12 -52 -5 c-36 -3 -53 -1 -56 8 -3 8 -6 6 -6 -4 -1 -10 -9
-18 -19 -18 -16 0 -167 -41 -205 -56 -10 -3 -25 17 -51 65 -33 64 -56 94 -56
75 0 -4 18 -40 40 -80 l39 -72 -42 -14 c-23 -9 -49 -18 -58 -22 -12 -5 -26 6
-53 42 -38 52 -116 182 -116 193 0 4 17 10 38 14 20 3 44 11 52 16 11 8 6 9
-20 5 -19 -3 -45 -8 -56 -11 -19 -6 -24 0 -38 42 -26 81 -46 176 -46 226 l0
47 90 0 90 0 0 -36 c0 -48 20 -176 31 -194 12 -21 12 10 0 81 -5 30 -12 75
-16 102 l-6 47 160 0 161 0 0 -30 c0 -16 5 -30 11 -30 7 0 9 11 5 30 l-5 30
77 0 c55 0 73 3 62 10 -8 6 -42 10 -75 8 l-60 -1 2 34 c1 19 5 69 9 113 l6 79
51 -6 c29 -4 84 -9 122 -13 l70 -6 -2 -87 -1 -86 11 88 c7 49 14 86 17 84 3
-3 45 -7 93 -9 l87 -3 0 -43 c0 -38 2 -43 18 -37 22 9 157 50 201 61 l33 9 -1
200 c-1 111 3 206 8 214 18 27 23 -31 19 -223 -2 -150 0 -185 10 -181 7 2 60
17 118 32 l105 28 -6 65 c-4 36 -9 73 -11 83 -5 14 1 17 34 17 21 0 66 3 99 6
l60 6 12 -68 c7 -38 15 -85 17 -105 l5 -37 -68 -10 -68 -10 66 1 67 2 6 -59
c3 -32 6 -77 6 -100 l0 -41 -105 0 -105 0 -2 55 c-3 90 -4 99 -9 105 -3 3 -48
-13 -100 -35 -52 -23 -102 -44 -112 -48 -17 -7 -18 -23 -18 -200 0 -105 2
-192 5 -192 3 0 56 0 116 0 l110 0 0 49 0 49 38 -4 c20 -2 67 -6 104 -10 l68
-6 -6 -41 c-4 -31 -3 -38 5 -27 6 8 11 28 11 44 0 26 2 28 33 23 17 -3 71 -9
120 -13 80 -6 87 -8 88 -28 1 -17 2 -17 6 -4 2 10 12 18 21 18 32 -1 282 -40
282 -45 0 -7 -51 -121 -78 -173 -24 -46 -37 -62 -48 -58 -40 16 -190 56 -207
56 -20 0 -20 -1 0 64 4 12 2 17 -5 12 -6 -3 -13 -20 -17 -36 -4 -17 -8 -30
-10 -30 -1 0 -36 6 -76 14 -105 21 -187 29 -170 17 13 -8 11 -22 -10 -96 -13
-48 -26 -91 -30 -96 -3 -5 -37 -4 -83 3 l-78 13 6 50 c4 27 9 65 13 84 5 29 3
33 -13 28 -11 -4 -55 -7 -99 -8 -44 -2 -84 -4 -90 -6 -6 -2 -9 -96 -7 -264 2
-175 -1 -265 -8 -274 -8 -9 -6 -14 5 -19 23 -9 73 47 108 121 29 62 30 64 61
58 51 -11 66 -16 66 -24 0 -17 -122 -123 -162 -141 -41 -19 -42 -20 -13 -20
173 0 427 46 607 110 234 84 408 190 558 340 139 139 231 303 246 437 9 81 -9
60 -50 -58 -61 -177 -167 -324 -319 -442 -87 -68 -187 -132 -187 -119 0 5 34
44 76 88 315 329 381 743 178 1114 -52 94 -150 217 -231 289 -85 76 -58 66
102 -37 38 -25 108 -84 156 -131 116 -116 185 -226 228 -363 11 -38 27 -80 36
-95 15 -27 16 -26 10 37 -12 122 -99 288 -216 414 -307 329 -852 513 -1409
476z m34 -22 c-5 -8 -2 -9 9 -5 10 4 25 10 35 14 11 4 6 -6 -14 -29 -17 -19
-42 -61 -55 -92 -22 -55 -25 -57 -52 -52 -16 3 -36 6 -43 6 -29 0 -12 30 51
89 36 33 62 61 57 61 -17 0 -93 -66 -119 -103 -27 -39 -29 -39 -90 -16 -13 5
-23 10 -23 12 0 13 128 84 195 108 60 22 58 22 49 7z m106 -88 l0 -99 -67 6
c-38 3 -69 7 -70 7 -6 5 58 125 81 154 47 55 56 45 56 -68z m62 73 c24 -26 93
-152 86 -158 -2 -1 -33 -5 -70 -8 l-68 -6 0 99 c0 111 7 121 52 73z m63 15
c30 2 170 -61 215 -97 l25 -20 -25 -9 c-65 -24 -66 -24 -95 18 -26 37 -99 100
-116 100 -4 0 25 -32 64 -72 l72 -71 -30 -8 c-65 -15 -70 -12 -95 47 -13 31
-37 73 -54 92 -24 27 -26 34 -11 27 11 -4 33 -8 50 -7z m-362 -28 c-34 -16
-78 -40 -97 -55 -34 -25 -35 -26 -66 -10 -18 9 -30 19 -27 21 10 10 212 73
232 73 11 0 -8 -13 -42 -29z m567 -6 c61 -19 110 -37 110 -39 0 -3 -14 -12
-30 -20 -29 -15 -32 -15 -63 9 -18 14 -62 39 -98 55 -87 41 -52 39 81 -5z
m-715 -9 c-35 -15 -63 -21 -68 -16 -6 6 8 14 34 21 24 6 49 13 54 15 6 2 17 4
25 4 8 0 -12 -11 -45 -24z m818 4 c21 -5 35 -14 32 -19 -5 -8 -47 4 -115 34
-18 7 30 -1 83 -15z m-900 -26 c4 -3 -24 -23 -61 -43 -130 -71 -278 -186 -325
-253 -51 -73 -140 -244 -158 -304 -6 -24 -15 -43 -18 -43 -3 0 -31 7 -61 15
-30 8 -64 15 -75 15 -34 -1 3 -16 73 -30 49 -10 62 -16 57 -28 -13 -35 -25
-105 -31 -184 l-7 -83 -90 1 -91 0 3 50 c20 362 291 699 701 870 59 25 73 28
83 17z m1093 -47 c230 -109 403 -262 517 -458 26 -45 47 -87 47 -93 0 -6 -26
-16 -57 -23 -32 -7 -67 -15 -79 -18 -17 -5 -22 1 -33 38 -7 24 -33 81 -57 127
-24 46 -44 88 -44 95 0 50 -235 258 -374 331 -72 39 -91 63 -37 50 14 -3 67
-26 117 -49z m-1051 -47 c-24 -22 -58 -62 -77 -89 -18 -27 -37 -50 -43 -50
-15 0 -145 54 -145 61 0 9 107 82 179 122 l63 35 33 -20 33 -19 -43 -40z
m1038 -12 c42 -28 77 -54 77 -58 0 -7 -88 -51 -127 -63 -14 -4 -24 2 -36 24
-10 17 -44 58 -75 92 -31 34 -52 63 -46 65 6 2 20 10 30 17 22 17 55 3 177
-77z m-937 27 c22 -9 40 -17 41 -18 2 -1 -15 -38 -37 -82 -22 -43 -40 -85 -40
-91 0 -7 -8 -13 -17 -12 -35 1 -137 34 -140 45 -3 9 141 174 152 174 1 0 20
-7 41 -16z m740 -21 c47 -45 118 -132 113 -137 -5 -5 -139 -46 -150 -46 -5 0
-9 7 -9 14 0 8 -18 50 -40 92 -22 43 -39 78 -37 80 3 3 71 32 78 33 3 1 23
-16 45 -36z m-584 -22 c3 -3 -2 -37 -12 -76 -11 -38 -19 -80 -19 -92 -1 -13
-6 -23 -13 -23 -22 0 -138 22 -138 26 0 9 62 140 76 162 13 19 20 21 57 16 23
-4 45 -9 49 -13z m485 -71 c24 -47 43 -88 43 -91 0 -4 -19 -9 -42 -12 -24 -4
-58 -9 -75 -13 -30 -6 -33 -4 -33 17 0 14 -9 56 -19 94 -11 39 -17 73 -13 77
8 7 58 16 82 14 8 -1 34 -39 57 -86z m-361 60 l44 0 0 -95 0 -95 -95 0 c-52 0
-95 3 -95 7 0 4 10 49 22 101 l22 94 29 -6 c16 -3 49 -6 73 -6z m222 -81 c12
-51 20 -94 18 -97 -3 -2 -46 -7 -96 -10 l-90 -5 0 96 0 96 58 4 c31 2 64 4 72
5 12 2 21 -21 38 -89z m-1152 -31 c-258 -259 -362 -566 -296 -869 44 -204 135
-363 305 -532 42 -42 74 -77 71 -77 -10 0 -132 74 -186 113 -240 175 -393 458
-377 697 12 164 64 297 172 435 71 90 113 131 203 199 58 44 168 113 184 115
3 1 -31 -36 -76 -81z m414 -21 c162 -56 318 -87 500 -100 l35 -2 0 -174 c0
-104 -3 -178 -10 -186 -12 -14 -172 -61 -180 -53 -9 8 -9 32 0 143 10 138 7
141 -145 160 -159 19 -427 79 -469 105 -29 18 11 83 89 142 30 24 37 26 55 14
11 -7 67 -30 125 -49z m1371 -29 c27 -27 49 -55 49 -63 0 -14 -56 -34 -190
-68 -66 -18 -222 -43 -345 -57 -115 -12 -126 -24 -118 -113 6 -72 3 -75 -102
-101 -46 -12 -61 -12 -67 -3 -12 20 -7 304 6 322 7 10 35 17 81 21 66 5 170
22 276 43 61 13 225 69 268 92 33 18 35 18 63 -3 16 -11 52 -43 79 -70z
m-1505 -158 l40 -10 -28 -82 c-15 -46 -28 -95 -28 -110 0 -15 -4 -29 -8 -32
-9 -5 -81 4 -212 27 -65 12 -75 16 -72 33 4 24 55 135 87 190 l25 42 77 -24
c43 -13 96 -28 119 -34z m1637 -15 c39 -72 82 -174 76 -179 -12 -9 -283 -46
-289 -39 -4 4 -13 37 -19 73 -7 36 -21 84 -31 107 l-18 41 61 16 c34 8 87 24
117 34 30 11 58 18 62 15 4 -2 22 -33 41 -68z m-1378 -60 c-2 -11 -10 -60 -17
-108 l-12 -89 -30 6 c-17 3 -65 8 -107 12 -43 4 -82 10 -89 14 -14 8 -6 47 45
215 2 7 39 4 109 -10 97 -18 106 -22 101 -40z m1121 -54 c20 -79 23 -105 14
-111 -7 -4 -46 -10 -89 -14 -42 -4 -90 -9 -107 -12 l-30 -6 -12 89 c-7 48 -15
97 -18 108 -5 19 3 22 98 41 57 11 106 17 111 14 4 -4 19 -53 33 -109z m-963
59 c37 0 38 -1 33 -27 -2 -16 -8 -64 -11 -107 l-7 -79 -91 7 c-50 3 -92 7 -93
9 -2 1 4 49 13 106 l16 103 51 -6 c28 -3 68 -6 89 -6z m1486 -117 c16 -31 50
-186 53 -243 l3 -54 -90 1 -90 2 -7 73 c-6 73 -21 160 -33 188 -4 12 9 19 62
31 90 22 91 22 102 2z m-2103 -43 c60 -11 124 -20 143 -20 31 0 33 -2 27 -27
-3 -16 -8 -68 -12 -118 l-7 -90 -155 2 c-85 1 -156 4 -158 6 -11 11 32 267 45
267 4 0 57 -9 117 -20z m1937 -57 c9 -43 19 -105 23 -138 l6 -60 -158 2 -159
2 -7 85 c-3 47 -9 99 -13 116 -6 29 -6 30 32 31 21 0 81 8 133 18 52 11 102
19 111 20 12 1 20 -18 32 -76z m-319 -40 c3 -38 7 -88 8 -112 l2 -43 -124 0
-124 1 -4 99 -3 100 93 9 c161 17 145 23 152 -54z m-508 -68 c8 -34 1 -362 -9
-371 -11 -11 -139 -13 -160 -2 -16 8 -18 24 -16 158 0 95 5 154 12 164 10 13
136 73 159 75 4 1 10 -10 14 -24z m254 -144 c0 -21 -3 -66 -6 -100 l-7 -61
-42 0 c-23 0 -69 3 -103 6 l-61 7 2 93 2 94 108 0 107 0 0 -39z m258 -48 c-3
-49 -7 -101 -7 -116 -1 -28 -2 -28 -47 -21 -25 3 -80 9 -122 13 l-76 6 4 70
c2 39 4 85 4 103 l-1 32 126 0 126 0 -7 -87z m338 35 c-4 -29 -14 -93 -23
-141 -17 -86 -18 -88 -43 -83 -14 3 -74 12 -135 22 -142 21 -138 20 -131 47 3
12 9 64 13 115 l6 92 159 0 160 0 -6 -52z m197 0 c-5 -58 -39 -209 -56 -245
-6 -14 -16 -22 -24 -19 -8 3 -43 11 -79 18 -59 11 -65 14 -59 32 13 48 35 184
35 224 l0 42 94 0 93 0 -4 -52z m-133 -269 c30 -6 57 -13 59 -15 12 -11 -143
-249 -158 -242 -3 2 -29 12 -57 22 l-51 20 42 80 c24 45 48 98 55 119 10 32
16 38 34 33 12 -3 46 -10 76 -17z m-547 -141 c39 -7 57 -15 57 -26 0 -8 -21
-54 -46 -102 l-46 -87 -60 18 c-33 11 -71 19 -85 19 -20 0 -24 4 -18 18 4 9
16 49 27 87 10 39 21 76 24 83 4 14 22 13 147 -10z m-1214 -68 c12 -28 35 -73
51 -100 27 -46 28 -51 12 -56 -9 -3 -45 -18 -80 -32 l-63 -25 -45 44 c-25 24
-65 69 -89 100 l-44 56 107 31 c59 17 112 31 118 31 6 1 21 -22 33 -49z m808
-18 c-13 -139 -100 -399 -132 -394 -13 3 -17 419 -4 444 8 15 22 18 76 18 l66
0 -6 -68z m631 32 c45 -13 85 -24 88 -24 10 0 -83 -114 -130 -159 l-45 -44
-63 25 c-35 14 -71 29 -81 32 -15 5 -14 10 12 53 16 26 39 72 51 101 26 61 15
60 168 16z m-1670 -87 c22 -29 61 -73 86 -98 25 -24 46 -47 46 -50 0 -3 -12
-11 -26 -18 -15 -6 -24 -14 -21 -17 3 -3 18 1 33 9 26 14 30 12 103 -41 42
-30 100 -66 129 -80 28 -15 52 -30 52 -34 0 -34 -248 81 -368 171 -61 45 -172
148 -175 163 -2 8 68 43 94 47 4 1 25 -23 47 -52z m1840 31 c23 -7 42 -17 42
-24 0 -13 -101 -105 -180 -164 -94 -70 -312 -180 -356 -180 -29 0 -11 16 54
50 37 19 94 56 128 81 58 45 61 46 88 32 15 -8 30 -12 33 -10 2 3 -6 11 -19
18 -12 6 -25 13 -27 15 -2 2 22 30 54 61 31 32 70 77 87 101 16 24 35 41 41
38 7 -3 31 -11 55 -18z m-1170 -131 c12 -46 24 -91 27 -99 5 -12 -3 -17 -30
-22 -20 -4 -42 -9 -49 -12 -9 -3 -30 28 -61 91 -26 52 -46 97 -44 99 2 2 31 8
64 13 33 6 63 11 66 12 4 0 16 -36 27 -82z m495 68 c31 -4 57 -10 57 -13 0 -3
-21 -48 -46 -100 -34 -70 -49 -92 -61 -88 -8 3 -32 9 -54 12 -21 4 -39 9 -39
13 0 3 10 48 22 99 20 83 25 92 43 88 11 -2 46 -8 78 -11z m-644 -73 c14 -31
36 -74 49 -95 13 -22 22 -40 20 -41 -2 -1 -23 -8 -48 -15 l-45 -13 -78 83
c-43 45 -76 87 -74 93 3 9 108 42 142 45 6 0 21 -25 34 -57z m801 40 c38 -10
65 -22 65 -30 0 -14 -98 -129 -132 -156 -20 -15 -28 -15 -65 -5 -55 16 -53 13
-31 46 23 33 73 137 73 152 0 14 10 13 90 -7z m-917 -134 c32 -38 62 -68 67
-68 19 0 9 -15 -21 -33 -31 -17 -31 -17 -98 20 -51 28 -144 90 -180 120 -8 6
7 14 76 43 l68 28 15 -21 c8 -12 41 -52 73 -89z m1134 60 l33 -14 -63 -46
c-34 -25 -92 -62 -129 -82 -72 -40 -66 -40 -126 0 -2 1 14 18 35 38 22 19 59
62 83 94 l42 59 47 -18 c25 -9 61 -24 78 -31z m-813 -137 c9 -27 33 -67 53
-90 l35 -41 -46 5 c-25 3 -62 13 -83 21 -51 22 -163 87 -163 96 0 4 17 12 38
19 l39 11 51 -53 c28 -30 65 -63 84 -73 22 -13 8 4 -39 48 -40 37 -73 72 -73
77 0 8 48 26 76 28 5 1 18 -21 28 -48z m455 8 c17 -6 31 -14 31 -18 0 -16
-145 -92 -215 -112 -28 -8 -29 -7 -10 6 66 49 105 83 121 107 21 31 28 33 73
17z m-546 -105 c47 -22 49 -24 17 -18 -45 7 -192 54 -204 64 -4 5 5 15 20 23
27 14 31 13 72 -15 23 -16 66 -40 95 -54z m651 46 c-12 -11 -200 -70 -222 -70
-9 1 10 14 43 29 33 16 76 40 95 54 33 23 37 24 64 10 15 -8 24 -18 20 -23z
m-759 -48 c-3 -3 -71 13 -103 23 -7 3 -11 9 -8 14 3 5 30 -1 60 -13 30 -11 53
-22 51 -24z m788 28 c-8 -7 -94 -30 -110 -30 -4 0 17 11 47 24 51 21 83 24 63
6z"/>
<path d="M1855 1299 c-33 -10 -116 -35 -185 -55 -69 -19 -213 -60 -320 -91
-107 -30 -256 -78 -330 -105 -285 -106 -598 -290 -588 -347 4 -21 111 -56 248
-80 198 -36 355 -44 690 -38 360 7 409 10 615 37 326 43 465 73 465 101 0 9
-39 11 -162 5 -239 -9 -356 -15 -523 -26 -364 -23 -795 28 -795 94 0 24 68 77
206 159 147 87 316 165 576 268 204 79 200 78 193 89 -8 14 -20 12 -90 -11z
m-356 -143 c-2 -2 -87 -46 -189 -97 -316 -158 -399 -226 -354 -294 24 -36 58
-51 155 -69 122 -22 276 -29 609 -29 278 0 323 -6 150 -22 -41 -3 -93 -10
-115 -15 -81 -17 -539 -28 -655 -15 -19 2 -74 4 -122 6 -49 1 -107 6 -130 10
-24 5 -99 18 -168 29 -137 23 -190 38 -190 55 0 51 353 238 600 320 74 24 152
51 173 60 66 27 251 75 236 61z"/>
<path d="M1415 1057 c-38 -18 -94 -45 -122 -60 l-53 -27 0 -69 0 -68 -46 -7
c-89 -12 -142 -8 -147 12 -4 13 -5 12 -6 -5 -1 -16 -9 -23 -28 -26 l-28 -4 28
-2 c20 -1 27 -6 27 -21 0 -11 5 -20 11 -20 6 0 8 9 4 20 -5 15 -2 20 12 21 10
0 53 4 96 7 l77 8 0 -31 c0 -54 8 -57 136 -63 l119 -5 0 187 c0 102 -2 186 -5
186 -3 0 -36 -15 -75 -33z m61 -156 c0 -98 -3 -136 -13 -146 -9 -9 -32 -12
-75 -9 -101 7 -108 10 -109 47 -2 31 -1 145 0 159 2 12 164 89 180 86 13 -3
16 -25 17 -137z"/>
</g>
</svg>
